<svg width="48" height="49" viewBox="0 0 48 49" fill="none" xmlns="http://www.w3.org/2000/svg">
<path d="M0 8.14063C0 3.72235 3.58172 0.140625 8 0.140625H40C44.4183 0.140625 48 3.72235 48 8.14062V40.1406C48 44.5589 44.4183 48.1406 40 48.1406H8C3.58172 48.1406 0 44.5589 0 40.1406V8.14063Z" fill="white"/>
<path d="M29.3125 13.4531C29.3125 12.7448 29.5625 12.1406 30.0625 11.6406C30.6042 11.099 31.25 10.8281 32 10.8281C32.75 10.8281 33.375 11.099 33.875 11.6406C34.4167 12.1406 34.6875 12.7448 34.6875 13.4531C34.6875 14.2031 34.4167 14.849 33.875 15.3906C33.375 15.8906 32.75 16.1406 32 16.1406C31.25 16.1406 30.6042 15.8906 30.0625 15.3906C29.5625 14.849 29.3125 14.2031 29.3125 13.4531ZM34.6875 37.4531V29.4531H38L34.625 19.3281C34.4167 18.7448 34.0833 18.2865 33.625 17.9531C33.1667 17.6198 32.6458 17.4531 32.0625 17.4531H31.9375C31.3542 17.4531 30.8333 17.6198 30.375 17.9531C29.9167 18.2865 29.5833 18.7448 29.375 19.3281L28.25 22.7656C28.9583 23.1406 29.5417 23.7031 30 24.4531C30.4583 25.1615 30.6875 25.9531 30.6875 26.8281V37.4531H34.6875ZM24.6875 23.4531C25.2292 23.4531 25.6875 23.2656 26.0625 22.8906C26.4792 22.5156 26.6875 22.0365 26.6875 21.4531C26.6875 20.9115 26.4792 20.4531 26.0625 20.0781C25.6875 19.6615 25.2292 19.4531 24.6875 19.4531C24.1042 19.4531 23.625 19.6615 23.25 20.0781C22.875 20.4531 22.6875 20.9115 22.6875 21.4531C22.6875 22.0365 22.875 22.5156 23.25 22.8906C23.625 23.2656 24.1042 23.4531 24.6875 23.4531ZM15.3125 16.1406C16.0625 16.1406 16.6875 15.8906 17.1875 15.3906C17.7292 14.849 18 14.2031 18 13.4531C18 12.7448 17.7292 12.1406 17.1875 11.6406C16.6875 11.099 16.0625 10.8281 15.3125 10.8281C14.6042 10.8281 13.9792 11.099 13.4375 11.6406C12.9375 12.1406 12.6875 12.7448 12.6875 13.4531C12.6875 14.2031 12.9375 14.849 13.4375 15.3906C13.9792 15.8906 14.6042 16.1406 15.3125 16.1406ZM18 37.4531V28.1406H20V20.1406C20 19.3906 19.7292 18.7656 19.1875 18.2656C18.6875 17.724 18.0625 17.4531 17.3125 17.4531H13.3125C12.6042 17.4531 11.9792 17.724 11.4375 18.2656C10.9375 18.7656 10.6875 19.3906 10.6875 20.1406V28.1406H12.6875V37.4531H18ZM26.6875 37.4531V32.1406H28V26.8281C28 26.2865 27.7917 25.8281 27.375 25.4531C27 25.0365 26.5417 24.8281 26 24.8281H23.3125C22.7708 24.8281 22.2917 25.0365 21.875 25.4531C21.5 25.8281 21.3125 26.2865 21.3125 26.8281V32.1406H22.6875V37.4531H26.6875Z" fill="#65665C"/>
</svg>
